<mxfile host="app.diagrams.net" modified="2020-11-17T16:02:38.998Z" agent="5.0 (Windows)" etag="2YFHSYZ1Jw-0foE-yYFt" version="13.9.9" type="github">
  <diagram id="ECBcf4AF0JtO1z4K7DSX" name="Page-1">
    <mxGraphModel dx="2830" dy="1084" grid="1" gridSize="14" guides="1" tooltips="1" connect="1" arrows="1" fold="1" page="1" pageScale="1" pageWidth="827" pageHeight="1169" background="#FFFFFF" math="0" shadow="0">
      <root>
        <mxCell id="0" />
        <mxCell id="1" parent="0" />
        <mxCell id="CNIEnDmMCDg7DlU-QSH8-22" value="Tracked changes" style="swimlane;fontStyle=1;childLayout=stackLayout;horizontal=1;startSize=26;horizontalStack=0;resizeParent=1;resizeParentMax=0;resizeLast=0;collapsible=1;marginBottom=0;rounded=0;shadow=0;strokeColor=#82b366;sketch=1;glass=0;separatorColor=#999999;fontFamily=Lucida Console;fillColor=none;fontSize=14;" parent="1" vertex="1">
          <mxGeometry x="20" y="20" width="250" height="140" as="geometry">
            <mxRectangle x="20" y="20" width="140" height="26" as="alternateBounds" />
          </mxGeometry>
        </mxCell>
        <mxCell id="CNIEnDmMCDg7DlU-QSH8-23" value="Create" style="text;strokeColor=none;fillColor=none;align=left;verticalAlign=top;spacingLeft=4;spacingRight=4;overflow=hidden;rotatable=0;points=[[0,0.5],[1,0.5]];portConstraint=eastwest;fontFamily=Courier New;fontSize=14;" parent="CNIEnDmMCDg7DlU-QSH8-22" vertex="1">
          <mxGeometry y="26" width="250" height="26" as="geometry" />
        </mxCell>
        <mxCell id="CNIEnDmMCDg7DlU-QSH8-24" value="Delete" style="text;strokeColor=none;align=left;verticalAlign=top;spacingLeft=4;spacingRight=4;overflow=hidden;rotatable=0;points=[[0,0.5],[1,0.5]];portConstraint=eastwest;noLabel=0;fontFamily=Courier New;rounded=0;glass=0;shadow=0;sketch=0;fontSize=14;" parent="CNIEnDmMCDg7DlU-QSH8-22" vertex="1">
          <mxGeometry y="52" width="250" height="26" as="geometry" />
        </mxCell>
        <mxCell id="CNIEnDmMCDg7DlU-QSH8-25" value="Data change" style="text;strokeColor=none;fillColor=none;align=left;verticalAlign=top;spacingLeft=4;spacingRight=4;overflow=hidden;rotatable=0;points=[[0,0.5],[1,0.5]];portConstraint=eastwest;fontFamily=Courier New;fontSize=14;" parent="CNIEnDmMCDg7DlU-QSH8-22" vertex="1">
          <mxGeometry y="78" width="250" height="26" as="geometry" />
        </mxCell>
        <mxCell id="CNIEnDmMCDg7DlU-QSH8-26" value="Status change" style="text;strokeColor=none;fillColor=none;align=left;verticalAlign=top;spacingLeft=4;spacingRight=4;overflow=hidden;rotatable=0;points=[[0,0.5],[1,0.5]];portConstraint=eastwest;fontFamily=Courier New;fontSize=14;" parent="CNIEnDmMCDg7DlU-QSH8-22" vertex="1">
          <mxGeometry y="104" width="250" height="36" as="geometry" />
        </mxCell>
        <mxCell id="-ayLkiG4syY7ho0zuzDr-17" value="Quartz.NET" style="shape=folder;fontStyle=1;tabWidth=110;tabHeight=30;tabPosition=left;html=1;boundedLbl=1;labelInHeader=1;rounded=0;shadow=0;glass=0;sketch=1;startSize=26;strokeColor=#82b366;fillColor=none;fontFamily=Lucida Console;fontSize=14;" parent="1" vertex="1">
          <mxGeometry x="-10" y="650" width="260" height="440" as="geometry" />
        </mxCell>
        <mxCell id="-ayLkiG4syY7ho0zuzDr-19" value="Scheduler" style="swimlane;fontStyle=1;align=center;verticalAlign=middle;childLayout=stackLayout;horizontal=1;startSize=29;horizontalStack=0;resizeParent=1;resizeParentMax=0;resizeLast=0;collapsible=0;marginBottom=0;html=1;rounded=0;shadow=0;glass=0;sketch=1;strokeColor=#82b366;fillColor=none;fontFamily=Lucida Console;fontSize=14;" parent="1" vertex="1">
          <mxGeometry x="10" y="710" width="220" height="90" as="geometry" />
        </mxCell>
        <mxCell id="-ayLkiG4syY7ho0zuzDr-21" value="+ RegisterJob(schedule, job)" style="text;html=1;strokeColor=none;fillColor=none;align=left;verticalAlign=middle;spacingLeft=4;spacingRight=4;overflow=hidden;rotatable=0;points=[[0,0.5],[1,0.5]];portConstraint=eastwest;fontFamily=Courier New;fontSize=14;" parent="-ayLkiG4syY7ho0zuzDr-19" vertex="1">
          <mxGeometry y="29" width="220" height="31" as="geometry" />
        </mxCell>
        <mxCell id="vq10Wp0aYiQOO_JATJNM-24" value="+ ...." style="text;html=1;strokeColor=none;fillColor=none;align=left;verticalAlign=middle;spacingLeft=4;spacingRight=4;overflow=hidden;rotatable=0;points=[[0,0.5],[1,0.5]];portConstraint=eastwest;fontFamily=Courier New;fontSize=14;" vertex="1" parent="-ayLkiG4syY7ho0zuzDr-19">
          <mxGeometry y="60" width="220" height="30" as="geometry" />
        </mxCell>
        <mxCell id="-ayLkiG4syY7ho0zuzDr-31" value="JobRunner" style="swimlane;fontStyle=1;align=center;verticalAlign=middle;childLayout=stackLayout;horizontal=1;startSize=29;horizontalStack=0;resizeParent=1;resizeParentMax=0;resizeLast=0;collapsible=0;marginBottom=0;html=1;rounded=0;shadow=0;glass=0;sketch=1;strokeColor=#82b366;fillColor=none;fontFamily=Lucida Console;fontSize=14;" parent="1" vertex="1">
          <mxGeometry x="10" y="900" width="140" height="90" as="geometry" />
        </mxCell>
        <mxCell id="-ayLkiG4syY7ho0zuzDr-32" value="+ DoWork(Job job)" style="text;html=1;strokeColor=none;fillColor=none;align=left;verticalAlign=middle;spacingLeft=4;spacingRight=4;overflow=hidden;rotatable=0;points=[[0,0.5],[1,0.5]];portConstraint=eastwest;fontFamily=Courier New;fontSize=14;" parent="-ayLkiG4syY7ho0zuzDr-31" vertex="1">
          <mxGeometry y="29" width="140" height="31" as="geometry" />
        </mxCell>
        <mxCell id="vq10Wp0aYiQOO_JATJNM-25" value="+ ..." style="text;html=1;strokeColor=none;fillColor=none;align=left;verticalAlign=middle;spacingLeft=4;spacingRight=4;overflow=hidden;rotatable=0;points=[[0,0.5],[1,0.5]];portConstraint=eastwest;fontFamily=Courier New;fontSize=14;" vertex="1" parent="-ayLkiG4syY7ho0zuzDr-31">
          <mxGeometry y="60" width="140" height="30" as="geometry" />
        </mxCell>
        <mxCell id="vq10Wp0aYiQOO_JATJNM-88" value="Analysis.Updates.Synchronization" style="shape=folder;fontStyle=1;tabWidth=355;tabHeight=40;tabPosition=left;html=1;boundedLbl=1;labelInHeader=1;rounded=0;shadow=0;glass=0;sketch=1;startSize=29;strokeColor=#82b366;fontFamily=Lucida Console;fillColor=none;fontSize=14;" vertex="1" parent="1">
          <mxGeometry x="320" y="630" width="1270.19" height="1010" as="geometry" />
        </mxCell>
        <mxCell id="vq10Wp0aYiQOO_JATJNM-78" value="SyncrhonizationService" style="swimlane;fontStyle=1;childLayout=stackLayout;horizontal=1;startSize=40;fillColor=none;horizontalStack=0;resizeParent=1;resizeParentMax=0;resizeLast=0;collapsible=1;marginBottom=0;rounded=0;shadow=0;glass=0;sketch=1;strokeColor=#82b366;fontFamily=Lucida Console;html=1;fontSize=14;" vertex="1" parent="vq10Wp0aYiQOO_JATJNM-88">
          <mxGeometry x="15" y="76.70886075949367" width="345" height="308.4810126582279" as="geometry">
            <mxRectangle x="470" y="290" width="190" height="40" as="alternateBounds" />
          </mxGeometry>
        </mxCell>
        <mxCell id="vq10Wp0aYiQOO_JATJNM-81" value="+ Start(ImportUpdatesJobCommand command)" style="text;html=1;strokeColor=none;fillColor=none;align=left;verticalAlign=middle;spacingLeft=4;spacingRight=4;overflow=hidden;rotatable=0;points=[[0,0.5],[1,0.5]];portConstraint=eastwest;fontFamily=Courier New;fontSize=14;" vertex="1" parent="vq10Wp0aYiQOO_JATJNM-78">
          <mxGeometry y="40" width="345" height="38.35443037974684" as="geometry" />
        </mxCell>
        <mxCell id="vq10Wp0aYiQOO_JATJNM-82" value="+ Start(ImportChangesJobCommand command)" style="text;html=1;strokeColor=none;fillColor=none;align=left;verticalAlign=middle;spacingLeft=4;spacingRight=4;overflow=hidden;rotatable=0;points=[[0,0.5],[1,0.5]];portConstraint=eastwest;fontFamily=Courier New;fontSize=14;" vertex="1" parent="vq10Wp0aYiQOO_JATJNM-78">
          <mxGeometry y="78.35443037974684" width="345" height="38.35443037974684" as="geometry" />
        </mxCell>
        <mxCell id="vq10Wp0aYiQOO_JATJNM-83" value="+ Cancel(CancelJobCommand command) " style="text;html=1;strokeColor=none;fillColor=none;align=left;verticalAlign=middle;spacingLeft=4;spacingRight=4;overflow=hidden;rotatable=0;points=[[0,0.5],[1,0.5]];portConstraint=eastwest;fontFamily=Courier New;fontSize=14;" vertex="1" parent="vq10Wp0aYiQOO_JATJNM-78">
          <mxGeometry y="116.70886075949369" width="345" height="38.35443037974684" as="geometry" />
        </mxCell>
        <mxCell id="vq10Wp0aYiQOO_JATJNM-84" value="+ Pause(PauseJobCommand command) " style="text;html=1;strokeColor=none;fillColor=none;align=left;verticalAlign=middle;spacingLeft=4;spacingRight=4;overflow=hidden;rotatable=0;points=[[0,0.5],[1,0.5]];portConstraint=eastwest;fontFamily=Courier New;fontSize=14;" vertex="1" parent="vq10Wp0aYiQOO_JATJNM-78">
          <mxGeometry y="155.06329113924053" width="345" height="38.35443037974684" as="geometry" />
        </mxCell>
        <mxCell id="vq10Wp0aYiQOO_JATJNM-85" value="+ Resume(PauseJobCommand command) " style="text;html=1;fillColor=none;align=left;verticalAlign=middle;spacingLeft=4;spacingRight=4;overflow=hidden;rotatable=0;points=[[0,0.5],[1,0.5]];portConstraint=eastwest;fontFamily=Courier New;fontSize=14;" vertex="1" parent="vq10Wp0aYiQOO_JATJNM-78">
          <mxGeometry y="193.41772151898738" width="345" height="38.35443037974684" as="geometry" />
        </mxCell>
        <mxCell id="vq10Wp0aYiQOO_JATJNM-87" value="+ Job_StatusChanged(sender, status)" style="text;html=1;fillColor=none;align=left;verticalAlign=middle;spacingLeft=4;spacingRight=4;overflow=hidden;rotatable=0;points=[[0,0.5],[1,0.5]];portConstraint=eastwest;fontFamily=Courier New;fontSize=14;" vertex="1" parent="vq10Wp0aYiQOO_JATJNM-78">
          <mxGeometry y="231.77215189873422" width="345" height="38.35443037974684" as="geometry" />
        </mxCell>
        <mxCell id="vq10Wp0aYiQOO_JATJNM-86" value="+ Job_ProgressReported(sender, progress) " style="text;html=1;fillColor=none;align=left;verticalAlign=middle;spacingLeft=4;spacingRight=4;overflow=hidden;rotatable=0;points=[[0,0.5],[1,0.5]];portConstraint=eastwest;fontFamily=Courier New;fontSize=14;" vertex="1" parent="vq10Wp0aYiQOO_JATJNM-78">
          <mxGeometry y="270.12658227848107" width="345" height="38.35443037974684" as="geometry" />
        </mxCell>
        <mxCell id="vq10Wp0aYiQOO_JATJNM-74" value="JobFactory" style="swimlane;fontStyle=1;childLayout=stackLayout;horizontal=1;startSize=50;fillColor=none;horizontalStack=0;resizeParent=1;resizeParentMax=0;resizeLast=0;collapsible=1;marginBottom=0;rounded=0;shadow=0;glass=0;sketch=1;strokeColor=#82b366;fontFamily=Lucida Console;html=1;fontSize=14;" vertex="1" parent="vq10Wp0aYiQOO_JATJNM-88">
          <mxGeometry x="15" y="485.82" width="489" height="126.70886075949369" as="geometry">
            <mxRectangle x="1020" y="290" width="100" height="50" as="alternateBounds" />
          </mxGeometry>
        </mxCell>
        <mxCell id="vq10Wp0aYiQOO_JATJNM-75" value="+ CreateImportUpdatesJob(ImportUpdatesJobCommand command)" style="text;strokeColor=none;fillColor=none;align=left;verticalAlign=top;spacingLeft=4;spacingRight=4;overflow=hidden;rotatable=0;points=[[0,0.5],[1,0.5]];portConstraint=eastwest;fontFamily=Courier New;fontSize=14;" vertex="1" parent="vq10Wp0aYiQOO_JATJNM-74">
          <mxGeometry y="50" width="489" height="38.35443037974684" as="geometry" />
        </mxCell>
        <mxCell id="vq10Wp0aYiQOO_JATJNM-76" value="+ CreateImportChangesJob(ImportChangesJobCommand command)" style="text;strokeColor=none;fillColor=none;align=left;verticalAlign=top;spacingLeft=4;spacingRight=4;overflow=hidden;rotatable=0;points=[[0,0.5],[1,0.5]];portConstraint=eastwest;fontFamily=Courier New;fontSize=14;" vertex="1" parent="vq10Wp0aYiQOO_JATJNM-74">
          <mxGeometry y="88.35443037974684" width="489" height="38.35443037974684" as="geometry" />
        </mxCell>
        <mxCell id="vq10Wp0aYiQOO_JATJNM-92" value="&lt;b style=&quot;font-size: 14px;&quot;&gt;JobRunner&lt;/b&gt;" style="swimlane;fontStyle=0;childLayout=stackLayout;horizontal=1;startSize=26;fillColor=none;horizontalStack=0;resizeParent=1;resizeParentMax=0;resizeLast=0;collapsible=1;marginBottom=0;rounded=0;shadow=0;glass=0;sketch=1;strokeColor=#82b366;fontFamily=Lucida Console;html=1;fontSize=14;" vertex="1" parent="vq10Wp0aYiQOO_JATJNM-88">
          <mxGeometry x="15" y="664.8101265822786" width="140" height="92.48101265822785" as="geometry" />
        </mxCell>
        <mxCell id="vq10Wp0aYiQOO_JATJNM-93" value="+ Start(Job job)" style="text;strokeColor=none;fillColor=none;align=left;verticalAlign=top;spacingLeft=4;spacingRight=4;overflow=hidden;rotatable=0;points=[[0,0.5],[1,0.5]];portConstraint=eastwest;fontFamily=Courier New;fontSize=14;" vertex="1" parent="vq10Wp0aYiQOO_JATJNM-92">
          <mxGeometry y="26" width="140" height="33.24050632911393" as="geometry" />
        </mxCell>
        <mxCell id="vq10Wp0aYiQOO_JATJNM-96" value="+ ...." style="text;strokeColor=none;fillColor=none;align=left;verticalAlign=top;spacingLeft=4;spacingRight=4;overflow=hidden;rotatable=0;points=[[0,0.5],[1,0.5]];portConstraint=eastwest;fontFamily=Courier New;fontSize=14;" vertex="1" parent="vq10Wp0aYiQOO_JATJNM-92">
          <mxGeometry y="59.24050632911393" width="140" height="33.24050632911393" as="geometry" />
        </mxCell>
        <mxCell id="vq10Wp0aYiQOO_JATJNM-97" value="REQCUpdateImportSource" style="swimlane;fontStyle=1;childLayout=stackLayout;horizontal=1;startSize=50;fillColor=none;horizontalStack=0;resizeParent=1;resizeParentMax=0;resizeLast=0;collapsible=1;marginBottom=0;rounded=0;shadow=0;glass=0;sketch=1;strokeColor=#82b366;fontFamily=Lucida Console;html=1;fontSize=14;" vertex="1" parent="vq10Wp0aYiQOO_JATJNM-88">
          <mxGeometry x="562" y="261.6440506329114" width="280" height="88.35443037974684" as="geometry">
            <mxRectangle x="830" y="50" width="200" height="50" as="alternateBounds" />
          </mxGeometry>
        </mxCell>
        <mxCell id="vq10Wp0aYiQOO_JATJNM-104" value="REQCUpdateChangesSource" style="swimlane;fontStyle=1;childLayout=stackLayout;horizontal=1;startSize=40;fillColor=none;horizontalStack=0;resizeParent=1;resizeParentMax=0;resizeLast=0;collapsible=1;marginBottom=0;rounded=0;shadow=0;glass=0;sketch=1;strokeColor=#82b366;fontFamily=Lucida Console;html=1;fontSize=14;" vertex="1" parent="vq10Wp0aYiQOO_JATJNM-88">
          <mxGeometry x="968" y="261.6462025316456" width="280" height="78.35443037974684" as="geometry">
            <mxRectangle x="830" y="200" width="200" height="40" as="alternateBounds" />
          </mxGeometry>
        </mxCell>
        <mxCell id="vq10Wp0aYiQOO_JATJNM-108" value="ItemMapper" style="swimlane;fontStyle=1;childLayout=stackLayout;horizontal=1;startSize=50;fillColor=none;horizontalStack=0;resizeParent=1;resizeParentMax=0;resizeLast=0;collapsible=1;marginBottom=0;rounded=0;shadow=0;glass=0;sketch=1;strokeColor=#82b366;fontFamily=Lucida Console;html=1;fontSize=14;" vertex="1" parent="vq10Wp0aYiQOO_JATJNM-88">
          <mxGeometry x="366" y="76.71367088607596" width="280" height="126.70886075949369" as="geometry">
            <mxRectangle x="830" y="50" width="200" height="50" as="alternateBounds" />
          </mxGeometry>
        </mxCell>
        <mxCell id="vq10Wp0aYiQOO_JATJNM-109" value="+ Map(Update update)" style="text;strokeColor=none;fillColor=none;align=left;verticalAlign=top;spacingLeft=4;spacingRight=4;overflow=hidden;rotatable=0;points=[[0,0.5],[1,0.5]];portConstraint=eastwest;fontFamily=Courier New;fontSize=14;" vertex="1" parent="vq10Wp0aYiQOO_JATJNM-108">
          <mxGeometry y="50" width="280" height="38.35443037974684" as="geometry" />
        </mxCell>
        <mxCell id="vq10Wp0aYiQOO_JATJNM-110" value="+ Map(StatusChange change)" style="text;strokeColor=none;fillColor=none;align=left;verticalAlign=top;spacingLeft=4;spacingRight=4;overflow=hidden;rotatable=0;points=[[0,0.5],[1,0.5]];portConstraint=eastwest;fontFamily=Courier New;fontSize=14;" vertex="1" parent="vq10Wp0aYiQOO_JATJNM-108">
          <mxGeometry y="88.35443037974684" width="280" height="38.35443037974684" as="geometry" />
        </mxCell>
        <mxCell id="vq10Wp0aYiQOO_JATJNM-135" value="&lt;div&gt;&amp;lt;&amp;lt;interface&amp;gt;&amp;gt;&lt;/div&gt;&lt;div&gt;IDataSource&lt;br&gt;&lt;/div&gt;" style="swimlane;fontStyle=1;childLayout=stackLayout;horizontal=1;startSize=50;fillColor=none;horizontalStack=0;resizeParent=1;resizeParentMax=0;resizeLast=0;collapsible=1;marginBottom=0;rounded=0;shadow=0;glass=0;sketch=1;strokeColor=#82b366;fontFamily=Lucida Console;html=1;fontSize=14;" vertex="1" parent="vq10Wp0aYiQOO_JATJNM-88">
          <mxGeometry x="780" y="76.70405063291145" width="280" height="126.70886075949369" as="geometry">
            <mxRectangle x="830" y="50" width="200" height="50" as="alternateBounds" />
          </mxGeometry>
        </mxCell>
        <mxCell id="vq10Wp0aYiQOO_JATJNM-136" value="+ Next(Query query)" style="text;strokeColor=none;fillColor=none;align=left;verticalAlign=top;spacingLeft=4;spacingRight=4;overflow=hidden;rotatable=0;points=[[0,0.5],[1,0.5]];portConstraint=eastwest;fontFamily=Courier New;fontSize=14;" vertex="1" parent="vq10Wp0aYiQOO_JATJNM-135">
          <mxGeometry y="50" width="280" height="38.35443037974684" as="geometry" />
        </mxCell>
        <mxCell id="vq10Wp0aYiQOO_JATJNM-137" value="+ Total(Query query)" style="text;strokeColor=none;fillColor=none;align=left;verticalAlign=top;spacingLeft=4;spacingRight=4;overflow=hidden;rotatable=0;points=[[0,0.5],[1,0.5]];portConstraint=eastwest;fontFamily=Courier New;fontSize=14;" vertex="1" parent="vq10Wp0aYiQOO_JATJNM-135">
          <mxGeometry y="88.35443037974684" width="280" height="38.35443037974684" as="geometry" />
        </mxCell>
        <mxCell id="vq10Wp0aYiQOO_JATJNM-139" style="edgeStyle=orthogonalEdgeStyle;curved=1;rounded=1;sketch=1;orthogonalLoop=1;jettySize=auto;html=1;exitX=0;exitY=0.5;exitDx=0;exitDy=0;startSize=26;strokeColor=#182E3E;fillColor=#dae8fc;fontFamily=Lucida Console;fontSize=14;fontColor=#1A1A1A;" edge="1" parent="vq10Wp0aYiQOO_JATJNM-88" source="vq10Wp0aYiQOO_JATJNM-136" target="vq10Wp0aYiQOO_JATJNM-97">
          <mxGeometry relative="1" as="geometry">
            <mxPoint x="921" y="307.20000000000005" as="targetPoint" />
          </mxGeometry>
        </mxCell>
        <mxCell id="vq10Wp0aYiQOO_JATJNM-140" style="edgeStyle=orthogonalEdgeStyle;curved=1;rounded=1;sketch=1;orthogonalLoop=1;jettySize=auto;html=1;exitX=1;exitY=0.5;exitDx=0;exitDy=0;startSize=26;strokeColor=#182E3E;fillColor=#dae8fc;fontFamily=Lucida Console;fontSize=14;fontColor=#1A1A1A;" edge="1" parent="vq10Wp0aYiQOO_JATJNM-88" source="vq10Wp0aYiQOO_JATJNM-136" target="vq10Wp0aYiQOO_JATJNM-104">
          <mxGeometry relative="1" as="geometry" />
        </mxCell>
        <mxCell id="vq10Wp0aYiQOO_JATJNM-141" value="&lt;div&gt;&amp;lt;&amp;lt;interface&amp;gt;&amp;gt;&lt;/div&gt;&lt;div&gt;ISynchronizationJob&lt;br&gt;&lt;/div&gt;" style="swimlane;fontStyle=1;childLayout=stackLayout;horizontal=1;startSize=50;fillColor=none;horizontalStack=0;resizeParent=1;resizeParentMax=0;resizeLast=0;collapsible=1;marginBottom=0;rounded=0;shadow=0;glass=0;sketch=1;strokeColor=#82b366;fontFamily=Lucida Console;html=1;fontSize=14;" vertex="1" parent="vq10Wp0aYiQOO_JATJNM-88">
          <mxGeometry x="780" y="392.00405063291146" width="280" height="290" as="geometry">
            <mxRectangle x="830" y="50" width="200" height="50" as="alternateBounds" />
          </mxGeometry>
        </mxCell>
        <mxCell id="vq10Wp0aYiQOO_JATJNM-142" value="+ Start()" style="text;strokeColor=none;fillColor=none;align=left;verticalAlign=top;spacingLeft=4;spacingRight=4;overflow=hidden;rotatable=0;points=[[0,0.5],[1,0.5]];portConstraint=eastwest;fontFamily=Courier New;fontSize=14;" vertex="1" parent="vq10Wp0aYiQOO_JATJNM-141">
          <mxGeometry y="50" width="280" height="40" as="geometry" />
        </mxCell>
        <mxCell id="vq10Wp0aYiQOO_JATJNM-143" value="+ Pause()" style="text;strokeColor=none;fillColor=none;align=left;verticalAlign=top;spacingLeft=4;spacingRight=4;overflow=hidden;rotatable=0;points=[[0,0.5],[1,0.5]];portConstraint=eastwest;fontFamily=Courier New;fontSize=14;" vertex="1" parent="vq10Wp0aYiQOO_JATJNM-141">
          <mxGeometry y="90" width="280" height="40" as="geometry" />
        </mxCell>
        <mxCell id="vq10Wp0aYiQOO_JATJNM-144" value="+ Resume()" style="text;strokeColor=none;fillColor=none;align=left;verticalAlign=top;spacingLeft=4;spacingRight=4;overflow=hidden;rotatable=0;points=[[0,0.5],[1,0.5]];portConstraint=eastwest;fontFamily=Courier New;fontSize=14;" vertex="1" parent="vq10Wp0aYiQOO_JATJNM-141">
          <mxGeometry y="130" width="280" height="40" as="geometry" />
        </mxCell>
        <mxCell id="vq10Wp0aYiQOO_JATJNM-145" value="+ Cancel()" style="text;strokeColor=none;fillColor=none;align=left;verticalAlign=top;spacingLeft=4;spacingRight=4;overflow=hidden;rotatable=0;points=[[0,0.5],[1,0.5]];portConstraint=eastwest;fontFamily=Courier New;fontSize=14;" vertex="1" parent="vq10Wp0aYiQOO_JATJNM-141">
          <mxGeometry y="170" width="280" height="40" as="geometry" />
        </mxCell>
        <mxCell id="vq10Wp0aYiQOO_JATJNM-146" value="+ ImportNext()" style="text;strokeColor=none;fillColor=none;align=left;verticalAlign=top;spacingLeft=4;spacingRight=4;overflow=hidden;rotatable=0;points=[[0,0.5],[1,0.5]];portConstraint=eastwest;fontFamily=Courier New;fontSize=14;" vertex="1" parent="vq10Wp0aYiQOO_JATJNM-141">
          <mxGeometry y="210" width="280" height="40" as="geometry" />
        </mxCell>
        <mxCell id="vq10Wp0aYiQOO_JATJNM-147" value="+ Event_NotifyStatusChange" style="text;strokeColor=none;fillColor=none;align=left;verticalAlign=top;spacingLeft=4;spacingRight=4;overflow=hidden;rotatable=0;points=[[0,0.5],[1,0.5]];portConstraint=eastwest;fontFamily=Courier New;fontSize=14;" vertex="1" parent="vq10Wp0aYiQOO_JATJNM-141">
          <mxGeometry y="250" width="280" height="40" as="geometry" />
        </mxCell>
        <mxCell id="vq10Wp0aYiQOO_JATJNM-112" value="&lt;b style=&quot;font-size: 14px;&quot;&gt;ImportJob&lt;/b&gt;" style="swimlane;fontStyle=0;childLayout=stackLayout;horizontal=1;startSize=26;fillColor=none;horizontalStack=0;resizeParent=1;resizeParentMax=0;resizeLast=0;collapsible=1;marginBottom=0;rounded=0;shadow=0;glass=0;sketch=1;strokeColor=#82b366;fontFamily=Lucida Console;html=1;fontSize=14;" vertex="1" parent="vq10Wp0aYiQOO_JATJNM-88">
          <mxGeometry x="612" y="757.29" width="180" height="59.24050632911393" as="geometry" />
        </mxCell>
        <mxCell id="vq10Wp0aYiQOO_JATJNM-113" value="+ ...." style="text;strokeColor=none;fillColor=none;align=left;verticalAlign=top;spacingLeft=4;spacingRight=4;overflow=hidden;rotatable=0;points=[[0,0.5],[1,0.5]];portConstraint=eastwest;fontFamily=Courier New;fontSize=14;" vertex="1" parent="vq10Wp0aYiQOO_JATJNM-112">
          <mxGeometry y="26" width="180" height="33.24050632911393" as="geometry" />
        </mxCell>
        <mxCell id="vq10Wp0aYiQOO_JATJNM-116" value="&lt;b style=&quot;font-size: 14px;&quot;&gt;FetchChangesJob&lt;/b&gt;" style="swimlane;fontStyle=0;childLayout=stackLayout;horizontal=1;startSize=26;fillColor=none;horizontalStack=0;resizeParent=1;resizeParentMax=0;resizeLast=0;collapsible=1;marginBottom=0;rounded=0;shadow=0;glass=0;sketch=1;strokeColor=#82b366;fontFamily=Lucida Console;html=1;fontSize=14;" vertex="1" parent="vq10Wp0aYiQOO_JATJNM-88">
          <mxGeometry x="1018" y="757.29" width="180" height="59.24050632911393" as="geometry" />
        </mxCell>
        <mxCell id="vq10Wp0aYiQOO_JATJNM-117" value="+ ...." style="text;strokeColor=none;fillColor=none;align=left;verticalAlign=top;spacingLeft=4;spacingRight=4;overflow=hidden;rotatable=0;points=[[0,0.5],[1,0.5]];portConstraint=eastwest;fontFamily=Courier New;fontSize=14;" vertex="1" parent="vq10Wp0aYiQOO_JATJNM-116">
          <mxGeometry y="26" width="180" height="33.24050632911393" as="geometry" />
        </mxCell>
        <mxCell id="vq10Wp0aYiQOO_JATJNM-148" style="edgeStyle=orthogonalEdgeStyle;curved=1;rounded=1;sketch=1;orthogonalLoop=1;jettySize=auto;html=1;exitX=1;exitY=0.5;exitDx=0;exitDy=0;entryX=0.5;entryY=0;entryDx=0;entryDy=0;startSize=26;strokeColor=#182E3E;fillColor=#dae8fc;fontFamily=Lucida Console;fontSize=14;fontColor=#1A1A1A;" edge="1" parent="vq10Wp0aYiQOO_JATJNM-88" source="vq10Wp0aYiQOO_JATJNM-144" target="vq10Wp0aYiQOO_JATJNM-116">
          <mxGeometry relative="1" as="geometry" />
        </mxCell>
        <mxCell id="vq10Wp0aYiQOO_JATJNM-149" style="edgeStyle=orthogonalEdgeStyle;curved=1;rounded=1;sketch=1;orthogonalLoop=1;jettySize=auto;html=1;exitX=0;exitY=0.5;exitDx=0;exitDy=0;entryX=0.5;entryY=0;entryDx=0;entryDy=0;startSize=26;strokeColor=#182E3E;fillColor=#dae8fc;fontFamily=Lucida Console;fontSize=14;fontColor=#1A1A1A;" edge="1" parent="vq10Wp0aYiQOO_JATJNM-88" source="vq10Wp0aYiQOO_JATJNM-144" target="vq10Wp0aYiQOO_JATJNM-112">
          <mxGeometry relative="1" as="geometry" />
        </mxCell>
        <mxCell id="vq10Wp0aYiQOO_JATJNM-118" value="Tasks" style="swimlane;fontStyle=1;childLayout=stackLayout;horizontal=1;startSize=26;fillColor=none;horizontalStack=0;resizeParent=1;resizeParentMax=0;resizeLast=0;collapsible=1;marginBottom=0;rounded=0;shadow=0;glass=0;sketch=1;strokeColor=#82b366;fontFamily=Lucida Console;html=1;fontSize=14;" vertex="1" parent="1">
          <mxGeometry x="336" y="20" width="630" height="284" as="geometry" />
        </mxCell>
        <mxCell id="vq10Wp0aYiQOO_JATJNM-119" value="- ImportJobService refactoring to SynchronizationJobService" style="text;strokeColor=none;fillColor=none;align=left;verticalAlign=top;spacingLeft=4;spacingRight=4;overflow=hidden;rotatable=0;points=[[0,0.5],[1,0.5]];portConstraint=eastwest;fontFamily=Courier New;fontSize=14;fontStyle=0" vertex="1" parent="vq10Wp0aYiQOO_JATJNM-118">
          <mxGeometry y="26" width="630" height="34" as="geometry" />
        </mxCell>
        <mxCell id="vq10Wp0aYiQOO_JATJNM-124" value="    - SynchronizationJobService to support ImportChangesJob" style="text;strokeColor=none;fillColor=none;align=left;verticalAlign=top;spacingLeft=4;spacingRight=4;overflow=hidden;rotatable=0;points=[[0,0.5],[1,0.5]];portConstraint=eastwest;fontFamily=Courier New;fontSize=14;fontStyle=0" vertex="1" parent="vq10Wp0aYiQOO_JATJNM-118">
          <mxGeometry y="60" width="630" height="34" as="geometry" />
        </mxCell>
        <mxCell id="vq10Wp0aYiQOO_JATJNM-122" value="- ImportJobFactory refactoring to SynchronizationJobFactory" style="text;strokeColor=none;fillColor=none;align=left;verticalAlign=top;spacingLeft=4;spacingRight=4;overflow=hidden;rotatable=0;points=[[0,0.5],[1,0.5]];portConstraint=eastwest;fontFamily=Courier New;fontSize=14;" vertex="1" parent="vq10Wp0aYiQOO_JATJNM-118">
          <mxGeometry y="94" width="630" height="38" as="geometry" />
        </mxCell>
        <mxCell id="vq10Wp0aYiQOO_JATJNM-123" value="    - SynchronizationJobFactory to support ImportChangesJob" style="text;strokeColor=none;fillColor=none;align=left;verticalAlign=top;spacingLeft=4;spacingRight=4;overflow=hidden;rotatable=0;points=[[0,0.5],[1,0.5]];portConstraint=eastwest;fontFamily=Courier New;fontSize=14;" vertex="1" parent="vq10Wp0aYiQOO_JATJNM-118">
          <mxGeometry y="132" width="630" height="38" as="geometry" />
        </mxCell>
        <mxCell id="vq10Wp0aYiQOO_JATJNM-125" value="- Create UpdateChangesSource" style="text;strokeColor=none;fillColor=none;align=left;verticalAlign=top;spacingLeft=4;spacingRight=4;overflow=hidden;rotatable=0;points=[[0,0.5],[1,0.5]];portConstraint=eastwest;fontFamily=Courier New;fontSize=14;labelBackgroundColor=none;" vertex="1" parent="vq10Wp0aYiQOO_JATJNM-118">
          <mxGeometry y="170" width="630" height="38" as="geometry" />
        </mxCell>
        <mxCell id="vq10Wp0aYiQOO_JATJNM-129" value="- Set up syncrhonization metadata table" style="text;strokeColor=none;fillColor=none;align=left;verticalAlign=top;spacingLeft=4;spacingRight=4;overflow=hidden;rotatable=0;points=[[0,0.5],[1,0.5]];portConstraint=eastwest;fontFamily=Courier New;fontSize=14;" vertex="1" parent="vq10Wp0aYiQOO_JATJNM-118">
          <mxGeometry y="208" width="630" height="38" as="geometry" />
        </mxCell>
        <mxCell id="vq10Wp0aYiQOO_JATJNM-130" value="- Set up triggers to track changes" style="text;strokeColor=none;fillColor=none;align=left;verticalAlign=top;spacingLeft=4;spacingRight=4;overflow=hidden;rotatable=0;points=[[0,0.5],[1,0.5]];portConstraint=eastwest;fontFamily=Courier New;fontSize=14;" vertex="1" parent="vq10Wp0aYiQOO_JATJNM-118">
          <mxGeometry y="246" width="630" height="38" as="geometry" />
        </mxCell>
      </root>
    </mxGraphModel>
  </diagram>
</mxfile>
